<svg xmlns="http://www.w3.org/2000/svg" xmlns:xlink="http://www.w3.org/1999/xlink" viewBox="0 0 13.68 12.57"><defs><style>.cls-1{fill:#fae100;}.cls-2{fill:#381e1f;}.cls-3{clip-path:url(#clip-path);}.cls-4{clip-path:url(#clip-path-2);}.cls-5{clip-path:url(#clip-path-3);}.cls-6{clip-path:url(#clip-path-4);}</style><clipPath id="clip-path"><path class="cls-1" d="M2.07,4.41h.7s0,1.94,0,2.39.74.33.73,0V4.44h.7a.35.35,0,0,0,0-.69H2.07a.34.34,0,0,0,0,.67"/></clipPath><clipPath id="clip-path-2"><path class="cls-1" d="M5.44,4.54l.39,1.23H5ZM5,4c-.17.38-.8,2.19-1,2.66s.5.63.65.29l.14-.5H6.07s0,0,.13.48.8.11.67-.26S6,4.23,5.86,4a.55.55,0,0,0-.46-.21A.41.41,0,0,0,5,4"/></clipPath><clipPath id="clip-path-3"><path class="cls-1" d="M7.11,4.08c0,.61,0,2.58,0,2.58s-.06.39.28.39H8.81c.33,0,.33-.7,0-.7H7.87s0-1.82,0-2.27a.38.38,0,0,0-.76,0"/></clipPath><clipPath id="clip-path-4"><path class="cls-1" d="M9.23,4c0,.27,0,2.7,0,2.88s.72.28.72,0V5.9l.22-.17L11.08,7c.19.24.78-.2.59-.45l-1-1.3.93-1c.16-.15-.32-.63-.47-.48L10,5s0-.66,0-1c0-.14-.18-.21-.35-.21s-.37.08-.37.23"/></clipPath></defs><g id="레이어_2" data-name="레이어 2"><g id="레이어_1-2" data-name="레이어 1"><path class="cls-2" d="M6.84,0C3.06,0,0,2.42,0,5.41A5.29,5.29,0,0,0,3.25,10c-.15.53-.52,1.94-.6,2.23s.14.37.29.27l2.63-1.79a8.82,8.82,0,0,0,1.27.1c3.78,0,6.84-2.42,6.84-5.41S10.62,0,6.84,0"/><path class="cls-1" d="M2.07,4.41h.7s0,1.94,0,2.39.74.33.73,0V4.44h.7a.35.35,0,0,0,0-.69H2.07a.34.34,0,0,0,0,.67"/><g class="cls-3"><rect class="cls-1" x="1.65" y="3.74" width="2.99" height="3.39"/></g><path class="cls-1" d="M5.44,4.54l.39,1.23H5ZM5,4c-.17.38-.8,2.19-1,2.66s.5.63.65.29l.14-.5H6.07s0,0,.13.48.8.11.67-.26S6,4.23,5.86,4a.55.55,0,0,0-.46-.21A.41.41,0,0,0,5,4"/><g class="cls-4"><rect class="cls-1" x="3.84" y="3.75" width="3.16" height="3.5"/></g><path class="cls-1" d="M7.11,4.08c0,.61,0,2.58,0,2.58s-.06.39.28.39H8.81c.33,0,.33-.7,0-.7H7.87s0-1.82,0-2.27a.38.38,0,0,0-.76,0"/><g class="cls-5"><rect class="cls-1" x="7.06" y="3.75" width="2.08" height="3.3"/></g><path class="cls-1" d="M9.23,4c0,.27,0,2.7,0,2.88s.72.28.72,0V5.9l.22-.17L11.08,7c.19.24.78-.2.59-.45l-1-1.3.93-1c.16-.15-.32-.63-.47-.48L10,5s0-.66,0-1c0-.14-.18-.21-.35-.21s-.37.08-.37.23"/><g class="cls-6"><rect class="cls-1" x="9.22" y="3.63" width="2.64" height="3.61"/></g></g></g></svg>