<?xml version="1.0" encoding="UTF-8"?>
<svg id="_레이어_2" data-name="레이어 2" xmlns="http://www.w3.org/2000/svg" viewBox="0 0 705.6 720">
  <defs>
    <style>
      .cls-1 {
        fill: #4285f4;
      }

      .cls-2 {
        fill: #fbbc05;
      }

      .cls-3 {
        fill: #34a853;
      }

      .cls-4 {
        fill: #ea4335;
      }
    </style>
  </defs>
  <g id="_레이어_1-2" data-name="레이어 1">
    <g>
      <path class="cls-1" d="m360,294.55v139.42h193.75c-8.51,44.84-34.04,82.8-72.33,108.33l116.84,90.66c68.07-62.83,107.35-155.13,107.35-264.76,0-25.53-2.29-50.08-6.55-73.64h-339.05Z"/>
      <path class="cls-3" d="m158.24,428.52l-26.35,20.17-93.27,72.65h0c59.24,117.49,180.65,198.66,321.37,198.66,97.2,0,178.69-32.07,238.25-87.05l-116.84-90.66c-32.07,21.6-72.98,34.69-121.42,34.69-93.6,0-173.13-63.16-201.6-148.26l-.15-.21Z"/>
      <path class="cls-2" d="m38.62,198.66C14.07,247.09,0,301.75,0,360s14.07,112.91,38.62,161.34c0,.33,119.78-92.95,119.78-92.95-7.2-21.6-11.46-44.51-11.46-68.4s4.26-46.8,11.46-68.4l-119.78-92.94Z"/>
      <path class="cls-4" d="m360,143.35c53.02,0,100.15,18.33,137.78,53.67l103.09-103.09C538.36,35.67,457.2,0,360,0,219.27,0,97.85,80.84,38.62,198.66l119.78,92.95c28.47-85.09,108-148.26,201.6-148.26h0Z"/>
    </g>
  </g>
</svg>